# xmcd
#
# Track frame offsets:
#	150
#	15225
#	30302
#	42077
#	53855
#	69530
#	81082
#	96532
#	107182
#	115885
#
# Disc length: 1722 seconds
#
# Revision: 1
# Processed by: cddbd v1.5PL3 Copyright (c) Steve Scherf et al.
# Submitted via: audiograbber 1.83.01
#
DISCID=7806b80a
DTITLE=Banda Cascabel - Las 30 Bandas Del Siglo
DYEAR=1900
DGENRE=Ethnic
TTITLE0=Mi Corazon Lloro
TTITLE1=Te Quiero A Ti
TTITLE2=Eres Niña, Eres Mujer
TTITLE3=Hazme Una Señal
TTITLE4=Del Signo Libra
TTITLE5=El Jaboncito
TTITLE6=Mi Tierra
TTITLE7=Pachuco Bailarin
TTITLE8=Agujetas De Color De Rosa
TTITLE9=Sufro Por Ti
EXTD=
EXTT0=
EXTT1=
EXTT2=
EXTT3=
EXTT4=
EXTT5=
EXTT6=
EXTT7=
EXTT8=
EXTT9=
PLAYORDER=
